<?xml version="1.0" encoding="utf-8"?>
<!-- Generator: Adobe Illustrator 19.1.1, SVG Export Plug-In . SVG Version: 6.00 Build 0)  -->
<svg version="1.1" id="Layer_1" xmlns="http://www.w3.org/2000/svg" xmlns:xlink="http://www.w3.org/1999/xlink" x="0px" y="0px"
	 viewBox="0 0 1200 1200" enable-background="new 0 0 1200 1200" xml:space="preserve">
<g>
	<g>
		<polygon fill="#FDE9A4" points="873.629,1133.72 487.577,1133.72 101.525,1133.72 101.525,641.056 101.525,148.392 
			487.577,148.392 873.629,148.392 873.629,641.056 		"/>
		<path fill="#2E4C59" d="M873.627,1150h-386.05h-386.05c-4.496,0-8.566-1.822-11.512-4.768s-4.768-7.016-4.768-11.512V641.055
			V148.391c0-4.496,1.822-8.566,4.768-11.512c2.946-2.946,7.016-4.768,11.512-4.768h386.05h386.05c4.496,0,8.566,1.822,11.512,4.768
			c2.946,2.946,4.768,7.016,4.768,11.512v492.664v492.664c0,4.496-1.822,8.566-4.768,11.512
			C882.193,1148.178,878.123,1150,873.627,1150z M117.807,1117.439h369.77h369.77V641.055V164.671h-369.77h-369.77v476.384V1117.439
			z"/>
	</g>
	<g opacity="0.2">
		<polygon fill="#2E4C59" points="873.629,1133.72 487.577,1133.72 101.525,1133.72 101.525,641.056 101.525,148.392 
			487.577,148.392 873.629,148.392 873.629,641.056 		"/>
		<path fill="#2E4C59" d="M873.627,1150h-386.05h-386.05c-4.496,0-8.566-1.822-11.512-4.768s-4.768-7.016-4.768-11.512V641.055
			V148.391c0-4.496,1.822-8.566,4.768-11.512c2.946-2.946,7.016-4.768,11.512-4.768h386.05h386.05c4.496,0,8.566,1.822,11.512,4.768
			c2.946,2.946,4.768,7.016,4.768,11.512v492.664v492.664c0,4.496-1.822,8.566-4.768,11.512
			C882.193,1148.178,878.123,1150,873.627,1150z M117.807,1117.439h369.77h369.77V641.055V164.671h-369.77h-369.77v476.384V1117.439
			z"/>
	</g>
	<g>
		<polygon fill="#FDE9A4" points="815.529,1073.304 458.527,1073.304 101.525,1073.304 101.525,610.848 101.525,148.392 
			458.527,148.392 815.529,148.392 815.529,610.848 		"/>
		<path fill="#2E4C59" d="M815.53,1089.585H458.528H101.526c-4.496,0-8.566-1.822-11.512-4.768s-4.768-7.016-4.768-11.512V610.848
			V148.391c0-4.496,1.822-8.566,4.768-11.512c2.946-2.946,7.016-4.768,11.512-4.768h357.002H815.53
			c4.496,0,8.566,1.822,11.512,4.768c2.946,2.946,4.768,7.016,4.768,11.512v462.457v462.457c0,4.496-1.822,8.566-4.768,11.512
			S820.026,1089.585,815.53,1089.585z M117.807,1057.024h340.721H799.25V610.848V164.671H458.528H117.807v446.176V1057.024z"/>
	</g>
	<g opacity="0.2">
		<polygon fill="#2E4C59" points="229.365,1073.304 165.445,1073.304 101.525,1073.304 101.525,610.848 101.525,148.392 
			165.445,148.392 229.365,148.392 229.365,610.848 		"/>
		<path fill="#2E4C59" d="M229.365,1089.585h-63.919h-63.919c-4.496,0-8.566-1.822-11.512-4.768s-4.768-7.016-4.768-11.512V610.848
			V148.391c0-4.496,1.822-8.566,4.768-11.512c2.946-2.946,7.016-4.768,11.512-4.768h63.919h63.919c4.496,0,8.566,1.822,11.512,4.768
			c2.946,2.946,4.768,7.016,4.768,11.512v462.457v462.457c0,4.496-1.822,8.566-4.768,11.512
			C237.931,1087.763,233.861,1089.585,229.365,1089.585z M117.807,1057.024h47.639h47.639V610.848V164.671h-47.639h-47.639v446.176
			V1057.024z"/>
	</g>
	<g>
		<g>
			<g>
				<polyline fill="#EAEEEF" points="701.836,353.966 458.527,353.966 215.218,353.966 				"/>
				<path fill="#2E4C59" d="M701.835,370.245H458.526H215.218c-4.496,0-8.566-1.822-11.512-4.768
					c-2.946-2.946-4.768-7.016-4.768-11.512s1.822-8.566,4.768-11.512c2.946-2.946,7.016-4.768,11.512-4.768h243.308h243.308
					c4.496,0,8.566,1.822,11.512,4.768s4.768,7.016,4.768,11.512s-1.822,8.566-4.768,11.512S706.331,370.245,701.835,370.245z"/>
			</g>
			<g>
				<polyline fill="#EAEEEF" points="701.836,482.407 458.527,482.407 215.218,482.407 				"/>
				<path fill="#2E4C59" d="M701.835,498.688H458.526H215.218c-4.496,0-8.566-1.822-11.512-4.768
					c-2.946-2.946-4.768-7.016-4.768-11.512c0-4.496,1.822-8.566,4.768-11.512c2.946-2.946,7.016-4.768,11.512-4.768h243.308
					h243.308c4.496,0,8.566,1.822,11.512,4.768c2.946,2.946,4.768,7.016,4.768,11.512c0,4.496-1.822,8.566-4.768,11.512
					S706.331,498.688,701.835,498.688z"/>
			</g>
			<g>
				<polyline fill="#EAEEEF" points="701.836,610.848 458.527,610.848 215.218,610.848 				"/>
				<path fill="#2E4C59" d="M701.835,627.128H458.526H215.218c-4.496,0-8.566-1.822-11.512-4.768
					c-2.946-2.946-4.768-7.016-4.768-11.512s1.822-8.566,4.768-11.512c2.946-2.946,7.016-4.768,11.512-4.768h243.308h243.308
					c4.496,0,8.566,1.822,11.512,4.768s4.768,7.016,4.768,11.512s-1.822,8.566-4.768,11.512
					C710.401,625.306,706.331,627.128,701.835,627.128z"/>
			</g>
		</g>
		<g>
			<g>
				<polyline fill="#EAEEEF" points="701.836,739.289 458.527,739.289 215.218,739.289 				"/>
				<path fill="#2E4C59" d="M701.835,755.571H458.526H215.218c-4.496,0-8.566-1.822-11.512-4.768
					c-2.946-2.946-4.768-7.016-4.768-11.512s1.822-8.566,4.768-11.512c2.946-2.946,7.016-4.768,11.512-4.768h243.308h243.308
					c4.496,0,8.566,1.822,11.512,4.768s4.768,7.016,4.768,11.512s-1.822,8.566-4.768,11.512
					C710.401,753.749,706.331,755.571,701.835,755.571z"/>
			</g>
			<g>
				<polyline fill="#EAEEEF" points="701.836,867.73 458.527,867.73 215.218,867.73 				"/>
				<path fill="#2E4C59" d="M701.835,884.011H458.526H215.218c-4.496,0-8.566-1.822-11.512-4.768
					c-2.946-2.946-4.768-7.016-4.768-11.512s1.822-8.566,4.768-11.512c2.946-2.946,7.016-4.768,11.512-4.768h243.308h243.308
					c4.496,0,8.566,1.822,11.512,4.768s4.768,7.016,4.768,11.512s-1.822,8.566-4.768,11.512
					C710.401,882.189,706.331,884.011,701.835,884.011z"/>
			</g>
		</g>
	</g>
	<path fill="#2E4C59" d="M195.466,246.785c-16.608,0-29.257-12.375-37.754-30.861c-8.497-18.487-12.842-43.085-12.842-67.533
		s4.345-49.045,12.842-67.531C166.209,62.374,178.858,50,195.466,50s29.257,12.374,37.754,30.86
		c8.497,18.486,12.842,43.084,12.842,67.531c0,4.496-1.822,8.566-4.768,11.512s-7.016,4.768-11.512,4.768s-8.566-1.822-11.512-4.768
		c-2.946-2.946-4.768-7.016-4.768-11.512c0-20.215-3.18-35.995-7.024-47.046c-3.844-11.051-8.353-17.374-11.011-18.676
		c-2.658,1.302-7.167,7.625-11.011,18.676s-7.024,26.831-7.024,47.046c0,20.703,3.334,36.754,7.302,47.838s8.57,17.202,11.106,18.04
		c4.495,0,8.518,1.817,11.417,4.758s4.675,7.005,4.675,11.5c0,4.496-1.868,8.561-4.86,11.501S199.962,246.785,195.466,246.785z"/>
	<path fill="#2E4C59" d="M324.214,246.785c-16.608,0-29.257-12.375-37.754-30.861c-8.497-18.487-12.842-43.085-12.842-67.533
		s4.345-49.045,12.842-67.531C294.957,62.374,307.606,50,324.214,50s29.257,12.374,37.754,30.86
		c8.497,18.486,12.842,43.084,12.842,67.531c0,4.496-1.822,8.566-4.768,11.512c-2.946,2.946-7.016,4.768-11.512,4.768
		c-4.496,0-8.566-1.822-11.512-4.768s-4.768-7.016-4.768-11.512c0-20.215-3.18-35.995-7.024-47.046s-8.353-17.374-11.011-18.676
		c-2.658,1.302-7.167,7.625-11.011,18.676s-7.024,26.831-7.024,47.046c0,20.703,3.334,36.754,7.302,47.838s8.57,17.202,11.106,18.04
		c4.495,0,8.518,1.817,11.417,4.758s4.675,7.005,4.675,11.5c0,4.496-1.868,8.561-4.86,11.501
		C332.826,244.969,328.71,246.785,324.214,246.785z"/>
	<path fill="#2E4C59" d="M452.962,246.785c-16.608,0-29.257-12.375-37.754-30.861c-8.497-18.487-12.842-43.085-12.842-67.533
		s4.345-49.045,12.842-67.531C423.705,62.374,436.354,50,452.962,50s29.257,12.374,37.754,30.86
		c8.497,18.486,12.842,43.084,12.842,67.531c0,4.496-1.822,8.566-4.768,11.512s-7.016,4.768-11.512,4.768
		c-4.496,0-8.566-1.822-11.512-4.768s-4.768-7.016-4.768-11.512c0-20.215-3.18-35.995-7.024-47.046s-8.353-17.374-11.011-18.676
		c-2.658,1.302-7.167,7.625-11.011,18.676c-3.844,11.051-7.024,26.831-7.024,47.046c0,20.703,3.334,36.754,7.302,47.838
		c3.968,11.084,8.57,17.202,11.106,18.04c4.495,0,8.518,1.817,11.417,4.758s4.675,7.005,4.675,11.5c0,4.496-1.868,8.561-4.86,11.501
		S457.458,246.785,452.962,246.785z"/>
	<path fill="#2E4C59" d="M581.71,246.785c-16.608,0-29.256-12.375-37.752-30.861c-8.496-18.487-12.841-43.085-12.841-67.533
		s4.344-49.045,12.841-67.531C552.454,62.374,565.102,50,581.71,50s29.257,12.374,37.754,30.86s12.842,43.084,12.842,67.531
		c0,4.496-1.822,8.566-4.768,11.512c-2.946,2.946-7.016,4.768-11.512,4.768s-8.566-1.822-11.512-4.768s-4.768-7.016-4.768-11.512
		c0-20.218-3.18-35.999-7.024-47.05s-8.353-17.372-11.011-18.673c-2.658,1.301-7.166,7.623-11.01,18.674
		c-3.844,11.051-7.023,26.832-7.023,47.048c0,20.702,3.334,36.752,7.302,47.837c3.968,11.085,8.569,17.203,11.103,18.041
		c4.495,0,8.518,1.817,11.417,4.758s4.675,7.005,4.675,11.5c0,4.496-1.868,8.561-4.86,11.501S586.206,246.785,581.71,246.785z"/>
	<path fill="#2E4C59" d="M710.461,246.785c-16.608,0-29.257-12.375-37.754-30.861s-12.842-43.085-12.842-67.533
		s4.345-49.045,12.842-67.531S693.854,50,710.461,50s29.257,12.374,37.754,30.86c8.497,18.486,12.842,43.084,12.842,67.531
		c0,4.496-1.822,8.566-4.768,11.512s-7.016,4.768-11.512,4.768c-4.496,0-8.566-1.822-11.512-4.768s-4.768-7.016-4.768-11.512
		c0-20.217-3.18-35.997-7.024-47.048c-3.844-11.051-8.353-17.373-11.011-18.674c-2.658,1.301-7.167,7.622-11.011,18.673
		c-3.844,11.051-7.024,26.831-7.024,47.05c0,20.705,3.334,36.756,7.302,47.839s8.569,17.201,11.103,18.039
		c4.496,0,8.52,1.817,11.42,4.758c2.9,2.941,4.676,7.005,4.676,11.5c0,4.496-1.868,8.561-4.86,11.501
		C719.074,244.969,714.958,246.785,710.461,246.785z"/>
	<g>
		<g>
			<g>
				<path fill="#9AA1A7" d="M1098.472,266.113c-18.004-3.662-36.021-5.493-54.048-5.493s-36.065,1.831-54.112,5.493v130.76v130.76
					c18.097-3.662,36.15-5.493,54.172-5.493c18.022,0,36.013,1.831,53.989,5.493v-130.76V266.113z"/>
				<path fill="#2E4C59" d="M1098.474,543.914c-0.541,0-1.083-0.027-1.626-0.081c-0.542-0.054-1.085-0.136-1.624-0.246
					c-16.807-3.42-33.763-5.13-50.75-5.13s-34.005,1.711-50.936,5.134c-2.393,0.488-4.832,0.422-7.146-0.152
					s-4.501-1.657-6.39-3.202c-1.889-1.545-3.382-3.475-4.402-5.628s-1.569-4.531-1.569-6.973V396.873V266.112
					c0-3.871,1.363-7.476,3.675-10.304s5.573-4.882,9.368-5.652c19.039-3.863,38.201-5.794,57.352-5.794
					c19.152,0.001,38.293,1.933,57.29,5.797c3.793,0.771,7.053,2.824,9.364,5.652c2.311,2.828,3.673,6.431,3.673,10.3v130.761
					v130.761c0,2.444-0.549,4.823-1.572,6.978c-1.022,2.155-2.518,4.085-4.41,5.63c-1.466,1.199-3.111,2.117-4.854,2.735
					S1100.334,543.914,1098.474,543.914z M1006.592,279.766v114.32v114.32c12.603-1.677,25.231-2.516,37.844-2.518
					c12.613-0.002,25.212,0.834,37.758,2.505V394.076V279.759c-12.554-1.889-25.163-2.832-37.779-2.83
					S1019.174,277.877,1006.592,279.766z"/>
			</g>
			<g>
				<path fill="#FFFFFF" d="M990.312,520.31v247.101v247.101c0,14.934,6.053,28.454,15.84,38.241
					c9.787,9.787,23.307,15.84,38.241,15.84c14.934,0,28.454-6.053,38.24-15.84s15.84-23.307,15.84-38.241V767.411V520.31
					c-17.975,0-35.967,0-53.989,0C1026.462,520.31,1008.409,520.31,990.312,520.31z"/>
				<path fill="#2E4C59" d="M1044.392,1084.872c-19.398,0-36.988-7.891-49.729-20.632c-12.741-12.741-20.632-30.331-20.632-49.729
					v-247.1v-247.1c0-4.496,1.822-8.566,4.768-11.512s7.016-4.768,11.512-4.768h54.081h54.081c4.496,0,8.566,1.822,11.512,4.768
					s4.768,7.016,4.768,11.512v247.1v247.1c0,19.398-7.891,36.988-20.632,49.729S1063.791,1084.872,1044.392,1084.872z
					 M1006.592,536.591v238.96v238.96c0,10.422,4.239,19.872,11.084,26.717c6.845,6.845,16.295,11.084,26.717,11.084
					s19.872-4.239,26.717-11.084c6.845-6.845,11.084-16.295,11.084-26.717v-238.96v-238.96h-37.801H1006.592z"/>
			</g>
			<g>
				<path fill="#FFFFFF" d="M1098.472,133.53h-54.08h-54.08v66.292v66.292c18.047,0,36.085,0,54.112,0c18.027,0,36.044,0,54.048,0
					v-66.292V133.53z"/>
				<path fill="#2E4C59" d="M1098.474,282.395h-54.081h-54.081c-4.496,0-8.566-1.822-11.512-4.768
					c-2.946-2.946-4.768-7.016-4.768-11.512v-66.293v-66.293c0-4.496,1.822-8.566,4.768-11.512
					c2.946-2.946,7.016-4.768,11.512-4.768h54.081h54.081c4.496,0,8.566,1.822,11.512,4.768c2.946,2.946,4.768,7.016,4.768,11.512
					v66.293v66.293c0,4.496-1.822,8.566-4.768,11.512C1107.04,280.573,1102.97,282.395,1098.474,282.395z M1006.592,249.835h37.801
					h37.801v-50.013v-50.013h-37.801h-37.801v50.013V249.835z"/>
			</g>
			<path fill="#2E4C59" d="M1044.392,1150c-4.496,0-8.566-1.822-11.512-4.768s-4.768-7.016-4.768-11.512v-32.564v-32.564
				c0-4.496,1.822-8.566,4.768-11.512s7.016-4.768,11.512-4.768c4.496,0,8.566,1.822,11.512,4.768s4.768,7.016,4.768,11.512v32.564
				v32.564c0,4.496-1.822,8.566-4.768,11.512S1048.889,1150,1044.392,1150z"/>
			<g>
				<polygon fill="#ABE1ED" points="1098.472,978.057 1044.392,978.057 990.312,978.057 990.312,708.423 990.312,438.789 
					1044.392,438.789 1098.472,438.789 1098.472,708.423 				"/>
				<path fill="#2E4C59" d="M1098.474,994.338h-54.081h-54.081c-4.496,0-8.566-1.822-11.512-4.768s-4.768-7.016-4.768-11.512
					V708.423V438.788c0-4.496,1.822-8.566,4.768-11.512s7.016-4.768,11.512-4.768h54.081h54.081c4.496,0,8.566,1.822,11.512,4.768
					s4.768,7.016,4.768,11.512v269.635v269.635c0,4.496-1.822,8.566-4.768,11.512S1102.97,994.338,1098.474,994.338z
					 M1006.592,961.778h37.801h37.801V708.423V455.069h-37.801h-37.801v253.355V961.778z"/>
			</g>
		</g>
		<g>
			<path fill="#2E4C59" d="M1098.474,337.011h-54.081h-54.081c-4.496,0-8.566-1.822-11.512-4.768s-4.768-7.016-4.768-11.512
				c0-4.496,1.822-8.566,4.768-11.512c2.946-2.946,7.016-4.768,11.512-4.768h54.081h54.081c4.496,0,8.566,1.822,11.512,4.768
				c2.946,2.946,4.768,7.016,4.768,11.512c0,4.496-1.822,8.566-4.768,11.512S1102.97,337.011,1098.474,337.011z"/>
			<path fill="#2E4C59" d="M1098.474,390.113h-54.081h-54.081c-4.496,0-8.566-1.822-11.512-4.768
				c-2.946-2.946-4.768-7.016-4.768-11.512c0-4.496,1.822-8.566,4.768-11.512s7.016-4.768,11.512-4.768h54.081h54.081
				c4.496,0,8.566,1.822,11.512,4.768s4.768,7.016,4.768,11.512c0,4.496-1.822,8.566-4.768,11.512
				C1107.04,388.291,1102.97,390.113,1098.474,390.113z"/>
		</g>
	</g>
</g>
</svg>
